<?xml version="1.0" standalone="no"?>
<!DOCTYPE svg PUBLIC "-//W3C//DTD SVG 1.1//EN" "http://www.w3.org/Graphics/SVG/1.1/DTD/svg11.dtd" >
<svg xmlns="http://www.w3.org/2000/svg">
<metadata>Generated by IcoMoon</metadata>
<defs>
<font id="icons" horiz-adv-x="1024">
<font-face units-per-em="1024" ascent="960" descent="-64" />
<missing-glyph horiz-adv-x="1024" />
<glyph unicode="&#x20;" horiz-adv-x="512" d="" />
<glyph unicode="&#xe900;" glyph-name="flower" horiz-adv-x="806" d="M805.666 326.146c-72.954 7.137-177.099-39.385-264.326-126.348-51.469-50.775-91.927-112.572-117.559-181.576l-1.123 372.156c1.622-2.521 3.648-4.63 6.009-6.296 22.913-29.439 58.269-48.17 98.001-48.17 68.32 0 123.705 55.384 123.705 123.705 0 26.868-8.565 51.734-23.114 72.019-7.234 9.844-15.964 18.574-25.845 25.827 1.098 3.872 2.548 8.459 3.72 13.155 13.227 1.085 25.639 3.485 37.185 7.687 49.181 16.258 84.61 62.545 84.61 117.107 0 68.118-55.22 123.338-123.338 123.338-13.556 0-26.601-2.187-38.802-6.227l-2.301 0.25c-12.416-4.239-23.186-9.974-32.829-17.142l-8.406 6.833c3.906 10.074 6.63 21.746 7.635 33.905 0.030 68.193-54.881 123.104-122.617 123.104s-122.647-54.911-122.647-122.647c0.096-12.953 2.119-25.398 5.794-37.112l-11.873-7.56c-19.422 13.392-43.461 21.39-69.368 21.39-68.028 0-123.176-55.148-123.176-123.176 0-67.232 53.864-121.883 120.792-123.153 0.119-4.495 3.026-8.989 4.612-13.482-30.063-23.278-49.231-59.377-49.231-99.953 0-39.631 18.284-74.991 46.877-98.105 54.425-38.514 136.895-26.619 163.328 26.246v-367.678c0 70.839-57.359 134.806-111.017 185.028-86.435 86.963-185.028 132.163-258.775 126.348-7.137-73.483 34.627-176.306 121.326-264.326s194.544-127.405 247.409-124.498v0h52.865c79.298-2.908 171.812 43.35 254.811 126.877s134.806 189.786 127.67 262.476zM261.154 622.455c0.599 78.813 64.628 142.472 143.525 142.472 79.269 0 143.529-64.26 143.529-143.529s-64.258-143.527-143.525-143.529c-79.302 0.149-143.532 64.47-143.532 143.793 0 0.279 0.001 0.558 0.002 0.836z" />
<glyph unicode="&#xe901;" glyph-name="arrow-link" horiz-adv-x="683" d="M145.664-38.997l-120.661 120.661 366.336 366.336-366.336 366.336 120.661 120.661 486.997-486.997z" />
<glyph unicode="&#xe902;" glyph-name="check" horiz-adv-x="814" d="M224.653-64l-214.204 303.020c-15.673 26.122-10.449 57.469 10.449 73.143 26.122 15.673 57.469 10.449 73.143-10.449l120.163-167.184 433.633 799.347c15.673 26.122 47.020 36.571 73.143 20.898s36.571-47.020 20.898-73.143l-517.224-945.633z" />
<glyph unicode="&#xe903;" glyph-name="basket" d="M980.16 705.344h-680.832c-1.152 2.176-2.56 4.288-4.352 6.112 0 0-158.976 146.24-163.040 146.24h-106.272c-14.112 0-25.664-11.424-25.664-25.408v-45.632c0-13.984 11.552-25.408 25.664-25.408h86.112l115.744-114.784 104.48-332.032c9.6-30.624 43.968-55.648 76.32-55.648h431.424c32.32 0 66.656 25.024 76.32 55.648l105.44 335.264c9.568 30.56-8.992 55.648-41.344 55.648zM805.312 193.856c-43.328 0-78.4-34.816-78.4-77.728 0-43.008 35.104-77.824 78.4-77.824s78.4 34.816 78.4 77.824c0 42.912-35.072 77.728-78.4 77.728zM442.656 193.92c-43.328 0-78.432-34.88-78.432-77.792 0-43.008 35.104-77.824 78.432-77.824s78.432 34.816 78.432 77.824c-0.032 42.912-35.136 77.792-78.432 77.792z" />
<glyph unicode="&#xe904;" glyph-name="edit" d="M817.952 960c-25.12 0-50.272-9.632-69.568-28.896l-138.816-139.008 245.504-245.792 138.848 139.008c38.464 38.528 38.464 100.576 0 139.104l-106.56 106.688c-19.232 19.264-44.288 28.896-69.408 28.896zM540.16 722.592l-540.16-540.768v-245.824h245.504l540.16 540.8-245.504 245.792z" />
<glyph unicode="&#xe905;" glyph-name="share" horiz-adv-x="1339" d="M866.462 960l472.615-478.129-472.615-478.129v273.329c-787.692 0-866.462-341.071-866.462-341.071s78.769 750.671 866.462 750.671v273.329z" />
<glyph unicode="&#xe906;" glyph-name="bear" horiz-adv-x="968" d="M879.991 390.795c-35.006 43.26-118.679 134.048-216.583 153.685 52.973 41.278 86.921 104.827 87.657 176.333l0.001 8.089c117.825 86.804 49.805 174.177 49.805 174.177-59.197 85.381-152.262 38.991-180.723 22.199-41.027 21.702-89.679 34.443-141.306 34.443-53.552 0-103.902-13.708-147.733-37.806-28.862 24.424-108.835 73.375-173.724-4.037s9.961-164.5 48.952-196.376v0c1.351-73.080 36.929-137.579 91.333-178.305-110.686-24.901-213.997-134.188-238.757-161.795-35.559-21.63-58.946-60.171-58.946-104.174 0-0.997 0.012-1.992 0.036-2.984-0.058-1.187-0.089-2.752-0.089-4.324 0-56.715 40.66-103.933 94.421-114.094l0.723-0.114c95.911-322.739 279.764-183.284 279.764-183.284 19.875 16.346 36.191 36.205 48.162 58.726l98.977 1.040c9.278-21.977 21.648-40.826 36.812-57.027 175.501-131.38 269.42 107.686 269.42 107.686 7.539 18.003 11.919 38.923 11.919 60.866 0 4.622-0.194 9.198-0.575 13.721 6.268-1.998 13.434-2.826 20.786-2.868 60.472 3.037 108.328 52.783 108.328 113.706 0 2.050-0.054 4.087-0.161 6.11 0.036 0.611 0.050 1.662 0.050 2.716 0 54.562-37.267 100.42-87.735 113.509zM575.466 789.238v0c0.171 0.003 0.372 0.004 0.573 0.004 20.864 0 37.814-16.754 38.132-37.542v-0.030c0.011-0.339 0.017-0.738 0.017-1.138 0-21.377-17.329-38.706-38.706-38.706s-38.706 17.329-38.706 38.706c0 21.371 17.32 38.696 38.688 38.706zM280.049 5.728c-55.497 0-100.465 63.182-100.465 142.301s44.967 142.301 100.465 142.301 100.465-63.466 100.465-142.301-44.967-142.301-100.465-142.301zM352.623 751.102c0.311 20.837 17.040 37.665 37.808 38.136l0.044 0.001c0.171 0.003 0.372 0.004 0.573 0.004 20.864 0 37.814-16.754 38.132-37.542v-0.030c0.299-1.807 0.469-3.888 0.469-6.010 0-21.377-17.329-38.706-38.706-38.706s-38.706 17.329-38.706 38.706c0 1.919 0.14 3.806 0.41 5.651zM517.977 593.432h-64.605c-1.668-0.163-3.605-0.256-5.564-0.256-33.48 0-60.62 27.141-60.62 60.62s27.141 60.62 60.62 60.62c0.656 0 1.309-0.010 1.96-0.031l64.51 0.002c1.668 0.163 3.605 0.256 5.564 0.256 33.48 0 60.62-27.141 60.62-60.62s-27.141-60.62-60.62-60.62c-0.656 0-1.309 0.010-1.96 0.031zM651.455 5.728c-56.921 0-101.034 63.466-101.034 142.301s45.252 142.301 101.034 142.301 101.034-63.466 101.034-142.301-45.252-142.301-101.034-142.301z" />
<glyph unicode="&#xe907;" glyph-name="sun" d="M184.515 152.18l-44.522-44.522c-3.984-4.039-6.444-9.589-6.444-15.714 0-12.36 10.020-22.38 22.38-22.38 0.006 0 0.011 0 0.017 0h-0.001c6.164 0.006 11.732 2.558 15.708 6.661l44.527 44.527c3.984 4.039 6.444 9.589 6.444 15.714s-2.46 11.675-6.447 15.716c-4.185 3.738-9.74 6.025-15.83 6.025s-11.646-2.286-15.856-6.048zM133.803 447.881c0 12.36-10.020 22.38-22.38 22.38 0 0 0 0 0 0h-89.043c-11.328-1.207-20.075-10.713-20.075-22.261s8.747-21.053 19.977-22.252l89.142-0.008c0.071-0.001 0.154-0.001 0.238-0.001 12.229 0 22.142 9.913 22.142 22.142 0 0 0 0.001 0 0.001zM184.515 743.82c4.169-3.912 9.768-6.342 15.935-6.428h0.017c6.097 0.149 11.602 2.568 15.726 6.44 3.971 4.027 6.432 9.577 6.432 15.702s-2.46 11.675-6.447 15.716l-44.519 44.519c-4.187 3.741-9.743 6.027-15.833 6.027s-11.646-2.286-15.856-6.048c-3.961-4.018-6.421-9.568-6.421-15.693s2.46-11.675 6.447-15.716zM823.533 737.391v0c0.034 0 0.074 0 0.114 0 6.086 0 11.599 2.455 15.601 6.43l44.52 44.52c4.021 4.021 6.509 9.577 6.509 15.714 0 12.273-9.949 22.222-22.222 22.222-6.137 0-11.692-2.487-15.714-6.509l-44.522-44.522c-4.041-4.013-6.543-9.571-6.543-15.714 0-12.229 9.913-22.142 22.142-22.142 0.040 0 0.080 0 0.121 0zM511.881 826.435c0 0 0.001 0 0.001 0 12.276 0 22.244 9.885 22.379 22.129v89.056c-1.207 11.328-10.713 20.075-22.261 20.075s-21.053-8.747-22.252-19.977l-0.008-89.142c0.133-12.175 9.967-22.009 22.129-22.142zM845.675 448.119c0 184.086-149.231 333.318-333.318 333.318s-333.318-149.231-333.318-333.318c0-184.086 149.231-333.318 333.318-333.318s333.318 149.231 333.318 333.318v0zM689.016 264.794c-46.6-42.131-108.678-67.912-176.777-67.912s-130.178 25.781-177.006 68.116c-43.265 36.287-71.512 89.723-74.275 149.809-0.017 13.606 10.643 24.265 23.792 24.265s23.808-10.659 23.808-23.808c2.996-46.364 25.141-87.027 58.53-114.535 38.502-34.871 89.469-56.080 145.389-56.080s106.887 21.209 145.295 56.022c33.483 27.567 55.628 68.229 58.6 114.117 0.025 13.626 10.684 24.285 23.833 24.285s23.808-10.659 23.808-23.808c-2.907-60.609-31.322-114.051-74.663-150.199zM839.247 152.18c-4.039 3.984-9.589 6.444-15.714 6.444s-11.675-2.46-15.716-6.447l0.003 0.002c-4.028-3.974-6.522-9.493-6.522-15.595s2.495-11.62 6.52-15.592l44.524-44.524c3.912-4.111 9.424-6.667 15.533-6.667 0.064 0 0.127 0 0.19 0.001h-0.010c0.054 0 0.117-0.001 0.181-0.001 6.109 0 11.621 2.557 15.524 6.658 3.992 4.047 6.453 9.598 6.453 15.722s-2.46 11.675-6.447 15.716zM1024 447.881c0 12.36-10.020 22.38-22.38 22.38h-89.043c-11.328-1.207-20.075-10.713-20.075-22.261s8.747-21.053 19.977-22.252l89.142-0.008c0.071-0.001 0.154-0.001 0.238-0.001 12.229 0 22.142 9.913 22.142 22.142 0 0 0 0.001 0 0.001zM512.119 69.803c-0.071 0.001-0.155 0.001-0.239 0.001-12.229 0-22.142-9.913-22.142-22.142 0-0.084 0-0.168 0.001-0.252v-89.031c-0.076-0.691-0.119-1.493-0.119-2.305 0-12.36 10.020-22.38 22.38-22.38s22.38 10.020 22.38 22.38c0 0.812-0.043 1.614-0.128 2.403l0.008 88.945c0.001 0.071 0.001 0.154 0.001 0.238 0 12.229-9.913 22.142-22.142 22.142 0 0-0.001 0-0.001 0z" />
<glyph unicode="&#xe908;" glyph-name="strawbarry" horiz-adv-x="767" d="M388.045 960v-1.245c3.379 1.469 7.314 2.324 11.45 2.324s8.071-0.855 11.64-2.397c7.844-1.736 14.466-6.73 18.404-13.481 51.597-69.83 75.99-130.065 72.754-180.842 0.001-0.174 0.001-0.381 0.001-0.587 0-13.818-2.093-27.148-5.979-39.689 11.733 6.049 25.076 9.285 39.099 9.901l0.233 0.008c54.759 24.891 124.453 5.476 207.339-24.891 8.269-1.696 15.228-6.378 19.846-12.845l-1.178-0.098c3.611-3.679 5.84-8.726 5.84-14.293 0-2.093-0.315-4.112-0.9-6.013-0.742-7.149-4.231-13.505-9.387-17.997-62.758-62.504-122.246-99.591-178.001-109.049-12.281-2.927-26.38-4.605-40.872-4.605-44.794 0-85.844 16.034-117.723 42.675-10.109 7.783-23.324 12.617-37.667 12.617s-27.559-4.834-38.104-12.961c-31.946-23.915-72.42-38.358-116.268-38.358-14.128 0-27.905 1.499-41.182 4.348l1.283-0.231q-82.886 13.939-176.723 99.562c-6.489 5.060-10.91 12.511-11.933 21.007l-0.015-1.095c-0.586 1.905-0.923 4.095-0.923 6.364 0 5.451 1.947 10.447 5.184 14.332 3.727 6.633 9.992 11.515 17.453 13.365q130.368 51.066 214.498 34.389c21.171-3.463 40.168-10.16 57.427-19.631-5.355 13.631-7.91 28.793-7.91 44.552 0 3.054 0.096 6.086 0.285 9.093l-0.021-0.411q1.493 74.672 81.392 171.496c4.737 7.233 11.955 12.506 20.422 14.635zM142.374 528.148c9.175-3.608 19.912-6.476 31.048-8.116l2.803-0.098c13.55-2.964 29.116-4.662 45.078-4.662 49.065 0 94.384 16.041 130.997 43.166 5.628 4.187 13.456 6.955 21.93 6.955s16.303-2.768 22.629-7.45c35.849-31.244 83.166-50.336 134.941-50.336 14.935 0 29.498 1.589 43.531 4.606l0.139-0.244c16.074 2.576 30.318 6.3 43.986 11.23 15.192-19.247 30.211-40.217 42.743-62.759 23.338-39.622 36.605-85.243 36.605-133.962 0-23.331-3.043-45.952-8.753-67.487-4.341-16.086-9.781-31.319-16.311-45.959-38.906-77.292-88.222-145.209-146.814-203.859q-72.674-77.155-144.857-73.172t-150.588 80.148c-61.749 55.855-112.651 122.341-150.079 196.769-7.927 16.998-13.312 32.439-17.106 48.494-5.616 21.181-8.653 43.604-8.653 66.736 0 49.033 13.646 94.878 37.347 133.946 13.896 24.568 30.396 46.778 49.279 66.707l-0.145-0.155zM203.356 373.328c-9.458 20.659-20.659 30.118-33.851 28.624-0.206 0.005-0.45 0.007-0.694 0.007-16.764 0-30.682-12.186-33.379-28.184-4.864-10.688-8.071-22.881-8.97-35.711-0.019-0.403-0.019-0.489-0.019-0.574 0-11.309 4.995-21.452 12.899-28.342 7.535-6.88 17.548-11.071 28.54-11.071 0.921 0 1.835 0.029 2.742 0.087 0.637-0.057 1.524-0.086 2.419-0.086 10.901 0 20.797 4.299 28.087 11.294l-0.014-0.013c8.219 5.994 13.5 15.591 13.5 26.422 0 0.687-0.021 1.37-0.063 2.046-1.552 13.513-5.518 25.893-11.468 37.054l0.271-0.558zM244.924 185.902c8.398-6.683 19.159-10.723 30.864-10.723s22.466 4.040 30.966 10.801l-0.102-0.078c8.194 5.996 13.456 15.579 13.456 26.39 0 0.348-0.005 0.695-0.016 1.040-1.165 13.632-5.176 26.157-11.436 37.244l0.237-0.456c-4.078 16.188-18.064 28.146-34.994 29.117-16.412-0.905-29.691-12.824-32.674-28.4-4.961-10.696-8.253-22.88-9.223-35.712 0.254-11.758 5.168-21.966 12.899-29.202l0.023-0.021zM339.508 102.767c0-0.062-0.001-0.135-0.001-0.208 0-11.6 5.086-22.011 13.15-29.126 7.618-6.577 17.561-10.561 28.434-10.561 0.87 0 1.734 0.025 2.591 0.076 0.398-0.028 1.004-0.041 1.612-0.041 11.029 0 21.084 4.17 28.674 11.020l-0.038-0.034c7.764 5.726 12.745 14.837 12.745 25.112 0 0.623-0.018 1.241-0.054 1.854-1.031 13.86-4.686 26.727-10.471 38.348-3.585 14.98-16.981 26.517-33.228 27.523-0.335 0.011-0.607 0.014-0.879 0.014-16.725 0-30.638-12.041-33.543-27.926-4.492-10.607-7.662-22.662-8.949-35.275l-0.044-0.528zM411.691 317.822v0c7.764 5.726 12.745 14.837 12.745 25.112 0 0.623-0.018 1.241-0.054 1.854-1.283 13.649-5.095 26.23-10.967 37.573-3.658 14.965-17.014 26.463-33.221 27.55-0.357 0.012-0.644 0.016-0.932 0.016-16.636 0-30.49-11.913-33.496-27.674-4.807-10.766-8.082-23.013-9.213-35.875-0.032-0.554-0.033-0.7-0.033-0.847 0-11.433 5.208-21.649 13.381-28.406 7.542-6.597 17.402-10.591 28.195-10.591 0.961 0 1.915 0.032 2.86 0.094 0.636-0.058 1.528-0.087 2.426-0.087 10.774 0 20.567 4.2 27.832 11.051l-0.020-0.019zM547.594 372.83c-4.853-10.199-8.434-22.032-10.135-34.465-0.074-0.811-0.076-1.024-0.076-1.237 0-11.249 5.111-21.304 13.137-27.97 7.75-6.878 17.933-11.049 29.092-11.049 0.732 0 1.46 0.018 2.183 0.053 0.69-0.059 1.614-0.091 2.545-0.091 10.746 0 20.51 4.203 27.738 11.056l-0.018-0.017c7.481 5.693 12.262 14.602 12.262 24.628 0 0.705-0.024 1.405-0.070 2.099-1.282 13.64-5.094 26.221-10.966 37.563-3.618 15.22-17.243 26.899-33.737 27.801-16.173-0.854-29.241-12.729-31.925-28.168l-0.029-0.204zM515.485 257.836c-4.136 15.872-17.866 27.577-34.489 28.619-0.168 0.006-0.237 0.006-0.306 0.006-16.762 0-30.678-12.183-33.378-28.177-4.638-10.667-7.898-22.807-9.195-35.526-0.046-0.695-0.048-0.908-0.048-1.121 0-11.249 5.111-21.304 13.137-27.97 8.271-6.995 18.98-11.218 30.675-11.218s22.405 4.223 30.685 11.228l-0.070-0.058c7.763 6.068 12.707 15.433 12.707 25.953 0 0.327-0.005 0.652-0.014 0.977-1.297 13.671-5.016 26.248-10.731 37.651l0.278-0.612z" />
<glyph unicode="&#xe909;" glyph-name="drops" horiz-adv-x="2901" d="M716.8 311.467c-3.565-198.242-160.936-358.59-357.639-366.908l-0.761-0.026c-198.463 2.395-358.425 163.838-358.425 362.642 0 1.509 0.009 3.016 0.028 4.52l-0.002-0.229c0 204.8 358.4 648.533 358.4 648.533s358.4-452.267 358.4-648.533zM1809.067 311.467c0.259-5.095 0.406-11.064 0.406-17.067 0-198.163-160.643-358.806-358.806-358.806-192.16 0-349.039 151.058-358.367 340.904l-0.033 34.968c0 204.8 358.4 648.533 358.4 648.533s358.4-452.267 358.4-648.533zM2901.333 311.467c0.259-5.095 0.406-11.064 0.406-17.067 0-198.163-160.643-358.806-358.806-358.806-192.16 0-349.039 151.058-358.367 340.904l-0.033 34.968c0 204.8 358.4 648.533 358.4 648.533s358.4-452.267 358.4-648.533z" />
<glyph unicode="&#xe90a;" glyph-name="waves" horiz-adv-x="3048" d="M2533.146 412.293c-265.591-199.488-492.228-199.488-757.229 0-172.929 129.844-321.070 129.844-493.999 0-263.82-196.537-478.063-196.537-741.293 0-177.061 131.025-295.101 131.025-468.030 0l-72.595 98.564c213.063 159.354 391.894 165.847 613.22 0 208.341-156.403 362.384-177.061 596.104 0 221.326 163.486 429.077 156.403 638.598 0s387.172-169.388 613.22 0 365.925 165.847 590.202 0l-75.546-98.564c-177.651 133.386-265.001 133.386-442.651 0zM2533.146 739.265c-265.591-198.898-492.228-198.898-757.229 0-172.929 129.844-321.070 129.844-493.999 0-263.23-197.127-477.473-197.127-740.703 0-177.061 131.025-295.101 131.025-468.62 0l-72.595 96.203c213.063 159.354 391.894 165.847 613.22 0 208.341-156.403 362.384-177.061 596.104 0 221.326 165.847 429.077 158.174 638.598 0s387.172-169.388 613.22 0 365.925 165.847 590.202 0l-75.546-96.793c-177.651 133.976-265.001 133.976-442.651 0zM613.22 181.524c208.341-156.403 362.384-177.061 596.104 0 221.326 165.847 427.306 158.764 638.598 0s387.172-169.388 613.22 0 365.925 165.847 590.202 0l-72.005-96.203c-177.061 133.386-265.001 133.386-443.241 0-265.591-198.898-492.228-199.488-757.229 0-172.929 129.844-321.070 129.844-493.999 0-263.23-197.127-477.473-197.127-740.703 0-177.061 131.615-295.101 131.615-468.62 0l-75.546 96.203c213.063 159.945 391.894 165.847 613.22 0z" />
<glyph unicode="&#xe90b;" glyph-name="lines" horiz-adv-x="1176" d="M1029.885 960h145.655v-1024h-145.655v1024zM686.59 960h145.655v-1024h-145.655v1024zM343.295 960h145.655v-1024h-145.655v1024zM0 960h145.655v-1024h-145.655v1024z" />
<glyph unicode="&#xe90c;" glyph-name="points" horiz-adv-x="2565" d="M353.843 783.079c0-97.711-79.21-176.921-176.921-176.921s-176.921 79.21-176.921 176.921c0 97.711 79.21 176.921 176.921 176.921s176.921-79.21 176.921-176.921zM1091.016 783.079c0-97.711-79.21-176.921-176.921-176.921s-176.921 79.21-176.921 176.921c0 97.711 79.21 176.921 176.921 176.921s176.921-79.21 176.921-176.921zM1828.188 783.079c0-97.711-79.21-176.921-176.921-176.921s-176.921 79.21-176.921 176.921c0 97.711 79.21 176.921 176.921 176.921s176.921-79.21 176.921-176.921zM2565.361 783.079c0-97.711-79.21-176.921-176.921-176.921s-176.921 79.21-176.921 176.921c0 97.711 79.21 176.921 176.921 176.921s176.921-79.21 176.921-176.921zM353.843 112.921c0-97.711-79.21-176.921-176.921-176.921s-176.921 79.21-176.921 176.921c0 97.711 79.21 176.921 176.921 176.921s176.921-79.21 176.921-176.921zM1091.016 112.921c0-97.711-79.21-176.921-176.921-176.921s-176.921 79.21-176.921 176.921c0 97.711 79.21 176.921 176.921 176.921s176.921-79.21 176.921-176.921zM1828.188 112.921c0-97.711-79.21-176.921-176.921-176.921s-176.921 79.21-176.921 176.921c0 97.711 79.21 176.921 176.921 176.921s176.921-79.21 176.921-176.921zM2565.361 112.921c0-97.711-79.21-176.921-176.921-176.921s-176.921 79.21-176.921 176.921c0 97.711 79.21 176.921 176.921 176.921s176.921-79.21 176.921-176.921z" />
<glyph unicode="&#xe90d;" glyph-name="share-facebook" horiz-adv-x="472" d="M454.709 448.904h-141.69v-512.904h-212.174v512.904h-100.846v180.727h100.846v116.388c0 83.496 39.76 213.981 213.981 213.981h157.233v-175.667h-113.858c-0.784 0.051-1.699 0.080-2.622 0.080-23.755 0-43.013-19.258-43.013-43.013 0-2.196 0.165-4.354 0.482-6.462l-0.029-106.030h158.678z" />
<glyph unicode="&#xe90e;" glyph-name="share-google" horiz-adv-x="1582" d="M-0.428 447.572c-0.009 1.139-0.014 2.487-0.014 3.835 0 274.373 216.724 498.128 488.322 509.415 9.527 0.534 19.473 0.819 29.487 0.819 131.211 0 250.989-48.948 342.072-129.579-43.318-45.295-86.092-90.635-131.004-133.408-90.252 54.75-199.325 96.241-304.548 59.028-138.368-38.871-238.123-163.914-238.123-312.256 0-178.828 144.968-323.796 323.796-323.796 38.111 0 74.684 6.584 108.643 18.677q11.425 3.574 24.685 9.135c87.272 39.765 151.144 117.729 170.756 211.925l-300.788 1.943v169.811h492.752c10.266-142.436-9.41-307.97-102.657-422.175-128.321-163.395-363.576-213.868-556.057-147.569-203.283 70.957-346.641 260.747-347.321 484.115zM1325.554 661.44h128.321v-128.321h128.321v-128.321h-128.321v-128.321h-128.321v128.321h-128.321v128.321h128.321v128.321z" />
<glyph unicode="&#xe90f;" glyph-name="share-linkedin" horiz-adv-x="1070" d="M0.396 609.424h237.679v-673.424h-237.679v673.424zM128.743 960c-1.953 0.111-4.237 0.175-6.536 0.175-67.48 0-122.183-54.703-122.183-122.183 0-65.181 51.039-118.441 115.332-121.995l12.199-0.014c1.774-0.092 3.852-0.145 5.942-0.145 67.463 0 122.153 54.69 122.153 122.153 0 65.373-51.354 118.752-115.921 121.997l-10.986 0.012zM1069.951 332.132v-396.132h-237.679v376.325c0 91.903-32.879 154.491-114.878 154.491-53.372-0.38-98.643-34.639-115.406-82.325-4.099-17.8-6.659-37.533-7.379-57.735l-0.016-392.738h-237.679v673.424h237.679v-76.057c40.068 67.509 112.586 112.052 195.508 112.052 4.383 0 8.738-0.124 13.060-0.37 148.743 0.027 264.017-112.87 264.017-310.936h2.773z" />
<glyph unicode="&#xe910;" glyph-name="share-tumblr" horiz-adv-x="580" d="M344.677 737.5v222.5h-143.317c-2.959-7.876-4.672-16.979-4.672-26.481 0-0.515 0.005-1.029 0.015-1.542-1.693-3.807-2.843-8.311-3.216-13.033-10.096-77.985-60.556-142.030-129.378-171.239-15.871-7.121-32.777-10.963-50.58-10.963-4.767 0-9.469 0.275-14.092 0.811l0.563-179.199h105.696c0-250.805 0-382.656 0-389.464v-15.048c4.739-99.813 76.87-181.486 171.673-200.767 39.237-10.713 82.705-16.734 127.579-16.734 1.484 0 2.967 0.007 4.448 0.020 61.11 2.034 119.235 12.761 173.932 30.987l-4.328 210.143-89.215-26.514c-12.476-4.612-26.886-7.28-41.919-7.28-33.737 0-64.336 13.438-86.736 35.253-4.041 5.216-7.431 11.26-9.852 17.776-4.937 24.591-7.795 52.427-8.034 80.888l-0.001 280.383h230.024v179.146h-228.591z" />
<glyph unicode="&#xe911;" glyph-name="share-twiter" horiz-adv-x="1286" d="M1286.635 838.784c-44.243-19.347-95.555-33.321-149.262-39.388 51.654 31.61 92.594 80.892 113.056 139.757-47.736-26.586-103.88-48.306-163.57-60.185-51.878 49.766-119.822 81.034-195.070 81.034-0.313 0-0.625-0.001-0.937-0.002-0.662 0.007-1.502 0.011-2.343 0.011-143.422 0-259.871-115.485-261.431-258.537 0.109-20.866 2.702-40.926 7.496-60.114-219.395 11.84-412.69 114.090-543.698 270.333-23.577-36.587-36.956-82.13-36.956-130.798 0-88.071 43.812-165.908 110.83-212.907-45.266 1.278-88.209 13.076-126.453 32.728l1.712-3.968c2.435-126.991 94.774-231.713 215.891-253.29-18.278-6.018-41.095-9.345-64.69-9.345-0.097 0-0.193 0-0.29 0-0.184-0.001-0.419-0.001-0.654-0.001-16.868 0-33.331 1.731-49.222 5.025 37.743-104.476 134.442-178.222 248.571-179.717-89.053-68.954-202.501-110.523-325.657-110.523-0.342 0-0.684 0-1.026 0.001-1.015-0.008-2.279-0.012-3.543-0.012-20.782 0-41.294 1.155-61.475 3.406 116.865-73.051 256.257-116.292 405.749-116.292 0.416 0 0.832 0 1.248 0.001 4.449-0.099 9.769-0.156 15.101-0.156 402.822 0 730.224 322.911 737.474 724.001q0.010 6.225 0.010 11.771 0 16.638 0 33.275c50.81 37.068 93.651 81.422 127.952 132.035z" />
<glyph unicode="&#xe912;" glyph-name="close" d="M1024 893.632l-56.864 56.896-455.136-455.136-455.104 455.136-56.896-56.896 455.136-455.136-436.16-436.16 56.864-56.864 436.16 436.16 436.16-436.16 56.864 56.864-436.16 436.192z" />
<glyph unicode="&#xe913;" glyph-name="youtube-symbol" d="M1006.305 690.055c-12.536 54.458-57.080 94.636-110.703 100.629-126.981 14.175-255.506 14.249-383.438 14.175-127.954 0.074-256.499 0-383.481-14.175-53.592-5.993-98.103-46.171-110.64-100.629-17.843-77.554-18.044-162.212-18.044-242.060s0-164.495 17.843-242.039c12.515-54.448 57.037-94.626 110.661-100.629 126.971-14.185 255.506-14.259 383.46-14.185 127.975-0.074 256.478 0 383.438 14.185 53.592 5.993 98.145 46.171 110.682 100.629 17.853 77.554 17.917 162.202 17.917 242.039 0 79.848 0.148 164.506-17.695 242.060zM379.855 289.059c0 113.272 0 225.359 0 338.641 108.526-56.625 216.332-112.87 325.545-169.844-108.874-56.467-216.734-112.373-325.545-168.797z" />
<glyph unicode="&#xe915;" glyph-name="share-digg" horiz-adv-x="1408" d="M608 704v-512h224v-128h-224v-128h352v768h-352zM832 320h-96v259.2h96v-259.2zM1024 704v-512h256v-128h-256v-128h384v768h-384zM1280 320h-128v256h128v-256zM224 960v-256h-224v-512h352v768h-128zM224 320h-96v256h96v-256zM416 704h128v-512h-128v512zM416 960h128v-128h-128v128z" />
</font>
</defs>
</svg>
